<?xml version="1.0" encoding="iso-8859-1"?>
<!-- Uploaded to: SVG Repo, www.svgrepo.com, Generator: SVG Repo Mixer Tools -->
<svg version="1.1" id="Layer_1" xmlns="http://www.w3.org/2000/svg" xmlns:xlink="http://www.w3.org/1999/xlink" 
	 viewBox="0 0 512 512" xml:space="preserve">
<g>
	<circle style="fill:#FFC2BE;" cx="453.168" cy="52.472" r="23.321"/>
	<circle style="fill:#FFC2BE;" cx="448.928" cy="200.878" r="23.321"/>
	<path style="fill:#FFC2BE;" d="M370.484,80.033c18.731,0,33.921,15.19,33.921,33.921s-15.19,33.921-33.921,33.921
		c-18.731,0-33.921-15.19-33.921-33.921S351.754,80.033,370.484,80.033z"/>
</g>
<rect x="141.516" y="7.95" style="fill:#9FD25A;" width="59.362" height="72.083"/>
<rect x="141.516" y="7.95" style="fill:#6EAD32;" width="29.946" height="72.083"/>
<path style="fill:#E0DDDF;" d="M301.423,330.203c-1.813-6.18-4.049-12.18-6.689-17.968l0,0l83.711-83.711l-41.967-41.967
	l-77.977,77.966c-13.092-11.014-28.282-19.611-44.903-25.081V58.832h-12.72h-59.362h-12.721v180.61
	c-42.232,13.887-75.316,47.935-87.835,90.761c-3.551,12.106-5.449,24.911-5.449,38.161c0,74.934,60.751,135.685,135.685,135.685
	s135.685-60.751,135.685-135.685c0-13.251-1.908-26.056-5.449-38.161H301.423z"/>
<rect x="323.941" y="205.939" transform="matrix(-0.7071 -0.7071 0.7071 -0.7071 382.42 682.6658)" style="fill:#C1BCBF;" width="17.307" height="112.384"/>
<path style="fill:#FF675C;" d="M301.433,330.203c3.541,12.106,5.449,24.911,5.449,38.161c0,74.934-60.751,135.685-135.685,135.685
	S35.511,443.299,35.511,368.364c0-13.251,1.897-26.056,5.449-38.161h260.463H301.433z"/>
<path style="fill:#DB3D5A;" d="M35.511,368.364c0,74.934,60.751,135.685,135.685,135.685c6.478,0,12.846-0.464,19.081-1.342
	c-65.899-9.276-116.605-65.886-116.605-134.343c0-13.251,1.897-26.056,5.449-38.161H40.96
	C37.409,342.309,35.511,355.114,35.511,368.364z"/>
<path style="fill:#C1BCBF;" d="M166.957,239.442V78.973h46.642V58.832h-84.803v180.61c-42.057,13.829-75.034,47.655-87.671,90.231
	c-0.053,0.178-0.112,0.352-0.164,0.53h38.161c0.052-0.178,0.111-0.352,0.164-0.53C91.923,287.097,124.899,253.271,166.957,239.442z"
	/>
<g>
	<path style="fill:#DB3D5A;" d="M116.075,410.236c-16.073,0-29.151-13.078-29.151-29.151s13.078-29.151,29.151-29.151
		s29.151,13.078,29.151,29.151S132.148,410.236,116.075,410.236z"/>
	<path style="fill:#DB3D5A;" d="M162.716,461.118c-16.073,0-29.151-13.078-29.151-29.151s13.078-29.151,29.151-29.151
		s29.151,13.078,29.151,29.151S178.79,461.118,162.716,461.118z"/>
	<path style="fill:#DB3D5A;" d="M222.079,410.236c-16.073,0-29.151-13.078-29.151-29.151s13.078-29.151,29.151-29.151
		s29.151,13.078,29.151,29.151S238.152,410.236,222.079,410.236z"/>
</g>
<path d="M370.484,72.083c-23.088,0-41.872,18.784-41.872,41.872s18.784,41.872,41.872,41.872c23.088,0,41.872-18.784,41.872-41.872
	S393.572,72.083,370.484,72.083z M370.484,139.925c-14.321,0-25.971-11.65-25.971-25.971s11.65-25.971,25.971-25.971
	c14.321,0,25.971,11.65,25.971,25.971S384.806,139.925,370.484,139.925z"/>
<path d="M448.928,169.607c-17.244,0-31.271,14.028-31.271,31.271s14.028,31.271,31.271,31.271c17.244,0,31.271-14.028,31.271-31.271
	S466.171,169.607,448.928,169.607z M448.928,216.248c-8.475,0-15.371-6.896-15.371-15.371s6.896-15.371,15.371-15.371
	c8.475,0,15.371,6.896,15.371,15.371S457.403,216.248,448.928,216.248z"/>
<path d="M453.168,83.743c17.244,0,31.271-14.028,31.271-31.271s-14.028-31.271-31.271-31.271c-17.244,0-31.271,14.028-31.271,31.271
	S435.924,83.743,453.168,83.743z M453.168,37.101c8.475,0,15.371,6.896,15.371,15.371s-6.896,15.371-15.371,15.371
	c-8.475,0-15.371-6.896-15.371-15.371S444.693,37.101,453.168,37.101z"/>
<path d="M333.1,171.934c-3.106-3.104-8.139-3.104-11.244,0c-3.105,3.106-3.105,8.139,0,11.244l3.378,3.378l-67.338,67.33
	c-11.136-8.457-23.31-15.196-36.347-20.075V66.783h9.01c4.392,0,7.95-3.559,7.95-7.95s-3.559-7.95-7.95-7.95h-21.732V7.95
	c0-4.392-3.559-7.95-7.95-7.95h-59.362c-4.392,0-7.95,3.559-7.95,7.95v42.932h-21.731c-4.392,0-7.95,3.559-7.95,7.95
	s3.559,7.95,7.95,7.95h9.01v167.026c-42.3,15.818-74.792,50.638-87.515,94.155c-3.828,13.053-5.769,26.645-5.769,40.4
	C27.561,447.565,91.996,512,171.197,512s143.636-64.435,143.636-143.636c0-13.716-1.941-27.307-5.768-40.393
	c-0.031-0.105-0.072-0.205-0.107-0.307c-1.364-4.613-2.97-9.173-4.789-13.618l74.277-74.277l3.378,3.378
	c1.553,1.552,3.588,2.328,5.622,2.328c2.034,0,4.069-0.776,5.622-2.328c3.105-3.106,3.105-8.139,0-11.244L333.1,171.934z
	 M149.466,15.901h43.462v34.981h-43.462V15.901z M296.876,298.849c-1.971-3.555-4.088-7.038-6.351-10.414
	c-2.447-3.647-7.384-4.621-11.031-2.176s-4.621,7.384-2.176,11.031c3.887,5.797,7.311,11.933,10.18,18.237c0,0,0,0.001,0.001,0.001
	c0.001,0.002,0.001,0.004,0.002,0.005c2.482,5.439,4.598,11.127,6.293,16.906c0.011,0.036,0.029,0.068,0.04,0.105
	c3.382,11.602,5.099,23.653,5.099,35.82c0,70.433-57.302,127.735-127.735,127.735S43.462,438.798,43.462,368.364
	c0-12.239,1.725-24.325,5.128-35.931c11.797-40.353,42.708-72.293,82.689-85.439c3.262-1.074,5.467-4.119,5.467-7.553V66.783h68.903
	v172.66c0,3.433,2.204,6.478,5.465,7.552c15.476,5.093,29.696,13.035,42.263,23.606c0.002,0.002,0.004,0.004,0.006,0.005
	c3.688,3.103,7.226,6.439,10.522,9.917c1.564,1.65,3.666,2.483,5.772,2.483c1.963,0,3.93-0.723,5.467-2.179
	c3.188-3.02,3.323-8.052,0.303-11.24c-1.736-1.833-3.538-3.627-5.384-5.38l66.416-66.406l30.723,30.723L296.876,298.849z"/>
<path d="M253.61,292.668c-2.972-3.234-8.001-3.447-11.233-0.477c-3.234,2.97-3.447,8-0.477,11.233
	c0.691,0.754,1.371,1.518,2.038,2.291c1.572,1.823,3.791,2.758,6.023,2.758c1.839,0,3.688-0.635,5.19-1.93
	c3.325-2.867,3.695-7.888,0.827-11.212C255.202,294.43,254.413,293.541,253.61,292.668z"/>
<path d="M236.804,277.722c-9.346-6.754-19.661-12.01-30.656-15.622c-4.174-1.375-8.665,0.9-10.034,5.071
	c-1.371,4.171,0.9,8.664,5.071,10.034c9.438,3.102,18.289,7.611,26.306,13.405c1.408,1.018,3.036,1.507,4.65,1.507
	c2.465,0,4.895-1.144,6.45-3.295C241.163,285.263,240.362,280.294,236.804,277.722z"/>
</svg>